PathFileType	4	(X/Y/Z)	OpenSim_Sub06_CSStiffKnee_Accel.trc
DataRate	CameraRate	NumFrames	NumMarkers	Units	OrigDataRate	OrigDataStartFrame	OrigNumFrames
100	100	41	8	m	100	4478	7164
Frame#	Time	torso_imu_offset_imu	pelvis_imu_offset_imu	tibia_r_imu_offset_imu	femur_r_imu_offset_imu	tibia_l_imu_offset_imu	femur_l_imu_offset_imu	toes_r_imu_offset_imu	toes_l_imu_offset_imu
				X1	Y1	Z1	X2	Y2	Z2	X3	Y3	Z3	X4	Y4	Z4	X5	Y5	Z5	X6	Y6	Z6	X7	Y7	Z7	X8		Y8	Z8	

4478	44.77000000	9.40751450	-1.42802131	5.60896227	8.34494331	2.49537036	4.83149654	10.46823797	1.10840205	1.92074811	9.81419205	-0.85520518	-0.83679229	6.03618823	1.45029963	5.34896255	8.13046461	7.62826210	1.97474361	4.99554982	-1.80542590	8.68415443	14.46942843	-8.91807819	-2.10134631
4479	44.78000000	9.31860246	-1.48708603	5.67731501	8.23994199	2.50332171	4.65614107	10.24626578	0.83729927	1.84183663	9.64767336	-1.12042546	-0.63949824	8.71956022	2.01818459	2.77612721	8.00044046	7.96719944	1.92672602	5.32896010	-1.53576120	8.75461468	14.11602959	-9.25765258	-3.10692929
4480	44.79000000	9.31433709	-1.51972227	5.74499807	8.06677934	2.52537841	4.45021254	10.25776422	0.61425014	1.71447281	9.57389156	-1.61943148	-0.57062146	10.44303596	2.45063903	0.42055106	7.32022574	7.55278679	1.70699109	5.28670392	-1.56354078	8.71549340	13.66498862	-4.20621964	-1.52949072
4481	44.80000000	9.17500157	-1.55009159	5.73639621	7.97010326	2.54012054	4.22522035	10.28842840	0.65269754	1.70502134	9.42270575	-2.21825723	-0.66029526	10.60761572	2.36167418	0.23541593	6.58195387	7.10971036	1.60781734	5.30921688	-1.57841807	8.67777657	12.99406540	-2.59129395	-0.88350827
4482	44.81000000	9.07439014	-1.60484973	5.72203766	8.03481990	2.55302837	3.94814389	10.17863413	0.60856579	1.79857020	9.17719630	-2.56360625	-0.68461341	9.63087238	1.51340296	1.56232103	6.28966234	6.71224182	1.29343200	5.32967463	-1.74977981	8.56132553	12.46917211	-0.33941708	0.73242794
4483	44.82000000	8.98920897	-1.67828746	5.77764485	7.81617873	2.44318799	3.77664385	10.13218275	0.48907506	1.95961039	8.97030871	-2.55459982	-0.54339281	8.20379088	0.44413121	2.74628353	6.10921074	5.96006680	0.86477796	5.76803469	-1.74965883	8.36858454	11.32502376	2.13916951	-0.58950332
4484	44.83000000	9.04506764	-1.73608914	5.76751283	7.83127099	2.45561919	3.94103215	10.02052551	0.34399362	1.86421847	8.95088514	-2.39977811	-0.40875407	7.87832917	-0.28822124	3.12232624	6.04279516	4.74328860	0.37437600	5.75664551	-1.57893493	8.53876930	6.39357861	-5.17297999	-1.39609319
4485	44.84000000	9.49607060	-1.74817259	5.72353815	7.72000685	2.29590696	4.42945683	10.11001056	0.09950617	1.85994969	9.12135241	-2.26741440	-0.41473463	8.90123838	-0.59965558	4.19308982	6.53630893	3.64785442	-0.05155417	5.52648135	-2.14952521	8.59245724	2.30129468	-7.49174345	9.55819802
4486	44.85000000	10.04955619	-1.63965178	5.59999282	7.55149755	1.96967280	5.81152764	10.53997522	-0.04530728	2.13218377	9.46647075	-2.37048618	-0.50352886	10.48269167	-2.08232562	4.37983031	8.28220152	2.49178104	0.22275166	5.20557243	-2.54217056	8.92371424	23.68238717	5.94775692	36.99116417
4487	44.86000000	11.62231707	-1.49287645	5.63021785	7.38776570	1.14011408	8.34948638	11.26301173	-0.07754737	1.98146460	9.99291276	-2.89962357	-0.64451473	12.98470169	-0.77917272	4.18643301	13.69220107	2.07598479	0.82442542	5.34984137	-3.03358908	9.45050570	39.14666689	-10.37181314	21.89929988
4488	44.87000000	14.36853888	-1.39078171	5.91233893	8.13528241	-0.81783781	10.21764059	12.65735189	-0.20762564	1.94468905	11.09385880	-3.55500104	-0.65315656	18.79382649	4.63007544	8.30411173	23.49382870	3.13283209	-0.91164107	5.51523916	-3.85603179	9.94539769	0.27383115	-14.42649178	-10.49048349
4489	44.88000000	14.62362781	-1.37855054	6.58071623	11.78014933	-3.13278806	9.46569760	14.26833074	-0.63667243	3.04102301	12.39169891	-3.91249521	-0.50936875	25.74477552	5.03392142	10.78289830	27.32656885	5.84932427	-6.17967003	5.25001978	-4.43178529	9.89183242	1.32810057	18.05076604	37.02659093
4490	44.89000000	12.26803446	-0.99703543	7.08917593	16.88309264	-6.36038180	9.00630028	14.78473536	-0.86247052	5.06703284	12.24832729	-3.56897348	-0.28355177	21.47749511	-0.03517386	8.10203706	19.60175689	7.44986477	-5.96892699	5.50189886	-4.34035051	9.85744466	9.45607902	1.56761803	7.98567905
4491	44.90000000	12.29069804	0.37895825	6.96948998	17.33612199	-8.66513605	9.03010342	13.89503570	-0.68675265	5.97350120	11.58731478	-2.95943322	0.20457544	8.39145180	-2.08607378	4.53381474	11.18127752	3.67064169	0.13517109	5.73896887	-4.62740952	10.11404155	7.66075990	-9.75097041	6.36249651
4492	44.91000000	12.48521781	1.77969969	6.53064977	13.02716258	-4.11999451	7.54336904	13.12858731	-0.37049545	6.47056488	12.00322124	-1.85985483	0.40294511	2.56852803	-5.07337568	1.83234167	7.89020594	2.33072812	1.51634741	5.81166136	-4.30265237	10.33130979	5.26184344	4.27993548	14.29680927
4493	44.92000000	11.69972167	2.37243922	5.90365350	10.37889812	0.32599003	7.48972045	13.10018784	-0.05094348	6.43152081	12.95253812	-0.97478861	0.33027961	1.68738236	-9.78009027	-0.75872411	8.01324219	1.51650754	1.26723050	5.65859015	-3.22313371	10.65320843	4.68346564	-0.44817761	10.87194581
4494	44.93000000	10.75223314	2.03611962	5.27637810	8.80278352	2.18718230	7.39436129	13.48405019	0.23212188	4.50279167	13.75983322	-0.16086855	0.41216654	2.96194355	-11.76961784	-2.46883716	6.32051503	-2.18915482	0.51360146	5.76289603	-1.14901432	11.00928557	4.18540279	2.09117976	12.05744051
4495	44.94000000	9.66864506	1.62788811	5.10380760	7.36674054	3.15783783	6.66998871	13.67899087	0.22781252	3.09515577	13.15042890	0.27948738	0.79040679	7.58473071	-8.86474576	-1.59854643	5.79094759	-4.73634568	-1.73447170	6.48334445	-2.30521157	10.20715216	4.95992165	2.26741651	10.98129549
4496	44.95000000	8.89814624	1.25014892	5.21929544	6.88376484	3.16318518	6.12631433	12.95704555	0.34298292	3.08979060	11.76158098	0.34477393	1.32680498	11.36638455	-5.90209188	-0.87105924	6.64164222	-5.76031604	-3.71405725	7.07096709	-3.84994172	9.56231678	5.18726500	2.56512663	11.14936156
4497	44.96000000	8.82809656	0.83022472	4.97360844	6.98013041	2.66732823	6.23996337	11.77542825	1.26523470	2.47960996	10.44935009	0.37054786	1.90760682	12.50925113	-5.60623985	-1.52930010	8.59293670	-6.04732909	-6.08165255	7.73779496	-3.70751244	9.48520885	5.28322697	1.53124757	11.03041060
4498	44.97000000	8.79804453	0.38425427	4.44530373	7.08952629	1.76336125	6.35595923	10.52985784	2.58730533	2.01553127	9.05963439	0.47604039	2.64328072	11.32621821	-7.18052322	-0.78336458	8.10696729	-5.26506163	-7.49237836	9.82456835	-6.38324493	8.56421961	4.29342552	1.30667084	11.57834941
4499	44.98000000	8.69399990	0.19569131	4.33034411	7.00352260	0.81820415	6.31337928	8.98956988	3.82134536	2.25095935	9.33024699	0.45862164	3.76040666	9.39739180	-8.25685936	0.78817448	8.81173100	-3.01395363	-8.20143762	13.40760258	-9.24009672	7.15144842	4.53593997	0.57562166	11.52185262
4500	44.99000000	8.52272043	0.19899998	4.09939025	6.89184625	-0.26247178	6.18676270	7.47426890	5.02130652	2.22086093	10.14345322	0.58065887	4.81325569	7.79290170	-5.75664081	2.34900244	11.04841995	-0.98450381	-7.96474974	11.24351565	-8.36317473	3.86733818	4.75580976	0.00394758	11.54524114
4501	45	8.34066870	0.46501042	4.09845974	6.89086556	-1.43981679	6.17698056	6.13612538	6.05211396	1.47792711	10.85563708	0.87162426	5.18556355	7.89941229	-1.47876642	3.48972729	11.57803197	0.72350917	-6.42113819	8.21027115	-3.19270111	4.54081300	4.53155062	-0.19422848	11.44125309
4502	45.01000000	8.18729695	0.80303178	4.38035107	6.97075713	-2.41143869	6.20333782	5.02710919	6.97353011	0.82138112	10.96031461	1.77387668	4.76664281	9.37511767	1.66070383	3.80339011	11.35587992	2.11932828	-3.81960158	10.90877278	-2.47506957	14.20832481	4.56511183	-0.14679822	11.54739585
4503	45.02000000	8.16972808	1.02674794	4.43315616	7.15944764	-3.09008776	6.21678095	4.53351645	7.97891534	0.56595974	10.51302335	2.31712497	3.74346980	10.53061459	2.22724986	3.28540123	10.00125018	3.35685430	0.45371975	16.65077306	-8.08901171	18.84692129	4.40675493	0.57705383	11.79696999
4504	45.03000000	8.22936184	1.22827983	4.33989230	7.53879820	-3.64194301	6.18622679	4.71526035	8.74091508	0.91011653	9.91469315	2.14630953	2.56593084	10.75724271	1.52727977	2.64767931	9.40167548	4.61524022	2.14410900	1.34773372	-10.61162805	11.70342912	4.65197081	0.66903259	11.53962724
4505	45.04000000	8.48573443	1.41555988	4.31749806	7.94301870	-3.94847763	6.16062702	4.89525706	8.80583462	1.38563134	9.57117086	1.51123919	1.54500556	10.29191580	0.47415240	1.95745193	9.29181445	5.46086579	1.13409936	-6.86608220	-8.67381528	6.33812966	4.90931225	0.85948240	11.35718786
4506	45.05000000	8.66491446	1.56302991	4.46951697	8.19648627	-3.93981713	6.03877328	4.92004017	8.02292994	2.16619331	9.46431099	0.47787631	1.08614579	9.82079932	-0.96249785	1.24949447	9.45814835	5.44647275	0.03533825	-0.35459046	-7.09664167	8.06470311	5.09466328	0.94576515	11.22850932
4507	45.06000000	8.64812768	1.57161520	4.67538195	8.19493904	-3.50274441	5.99828703	4.61135709	7.39873166	3.71658300	9.25629431	-0.83812696	1.14784306	9.61820040	-2.35607483	0.64139590	8.36786919	5.52720798	-1.89544956	2.31601253	-5.64066444	9.93755316	4.55111649	1.09809015	11.49307646
4508	45.07000000	8.81563317	1.42771326	4.70356053	7.84263984	-3.12462699	6.03247302	3.83931060	6.44301556	3.35225215	9.00383881	-1.72215030	1.48493423	9.80181376	-2.88649480	0.23279553	8.26277871	4.56403118	-3.01249850	1.65796503	-4.44936297	10.35504991	4.97211782	1.14309392	11.43763820
4509	45.08000000	8.92025547	1.30052104	4.70120947	7.44676956	-2.91388118	5.97168913	3.24817811	5.23788074	3.12513231	8.89393816	-1.93931320	1.83441742	9.99663617	-2.11654089	0.66131145	7.79513245	3.12959805	-3.49669287	1.39309357	-3.28059896	10.59518850	4.96394260	1.01051645	11.32229772
4510	45.09000000	9.00445878	1.16534605	4.63457804	7.18985211	-2.44486169	5.79895244	3.15604797	4.39918692	3.65735255	8.90385582	-1.83068905	2.13169517	10.13435482	-0.95298973	1.16358384	8.54987508	1.75167373	-3.37372254	1.68386236	-2.38922617	10.61073419	4.78928549	1.08160666	11.36919419
4511	45.10000000	9.13017409	1.03841728	4.63559600	7.04622002	-2.09108799	5.55845431	3.45114565	4.07075935	3.95770104	8.91946197	-1.50392939	2.23368552	10.16999375	-0.15921028	1.36758214	9.36234218	0.83624182	-3.43343827	2.27937675	-1.71365170	10.71217548	4.94225284	0.78763052	11.24100277
4512	45.11000000	8.89762215	1.00752725	4.68741749	7.25877023	-1.52830224	5.46827308	4.00210675	4.00032973	4.17688764	8.93504375	-1.10214748	2.32234308	9.97253810	0.25803856	1.64048951	9.22558664	0.15575108	-3.28462516	2.86378802	-0.94228514	10.66560579	4.38966651	1.15819415	11.58680467
4513	45.12000000	8.76792460	0.99157531	4.71434492	7.37573898	-1.38391671	5.52110943	4.92088845	3.89598705	4.28890473	8.94830067	-0.81391883	2.35495981	9.66131620	0.21006169	1.76059330	9.85119252	-0.21933578	-3.43457911	3.07917944	-0.17969903	10.44719548	4.75377589	1.07582185	11.39532100
4514	45.13000000	8.97826756	0.96568934	4.69070510	7.45028003	-1.41692235	5.47928416	6.16390810	3.79115226	3.82808774	8.86615617	-0.77490877	2.47632315	9.62654015	0.16282762	1.65470079	9.65705845	-0.17468222	-3.46216698	3.12867868	0.21478304	10.23948825	5.05660947	0.89619364	11.20167314
4515	45.14000000	9.08694468	0.99971238	4.81592956	7.51093475	-1.44512889	5.36308283	7.33384149	3.81884089	3.02167150	8.69862769	-0.80369526	2.62644568	9.83276639	-0.17336838	1.41704586	8.81484587	0.13316899	-3.03780505	3.85638876	0.06712133	10.18787730	5.15346767	0.81667233	11.09784134
4516	45.15000000	9.04736457	1.17794938	4.94352118	7.65955446	-1.62705925	5.21680085	7.82430468	4.02272401	2.80898694	8.38998054	-0.87440954	2.76250721	9.79406628	-0.94236631	1.11419834	8.49887446	0.47402499	-3.12777455	4.50862534	-0.48035667	10.18637404	5.11668087	0.87665579	11.18786988
4517	45.16000000	8.94129017	1.31952242	5.02365887	7.77540766	-1.75936117	5.14827052	7.51649497	4.57847937	3.14001156	8.05793397	-0.83193772	2.82086369	9.53329935	-1.74434482	0.78100281	8.41714296	0.84888191	-3.08570129	4.93750912	-1.00444985	10.21277385	5.00748852	1.24313696	11.14337526
4518	45.17000000	8.93932504	1.35960075	5.04824202	7.90121698	-1.84485552	5.07033809	6.93061335	5.32217789	3.39390502	7.72652615	-0.74433404	2.86366777	9.22238044	-2.31003207	0.55222978	8.56139946	1.33855179	-3.08104454	5.68129862	-1.37360733	10.21220707	5.26117901	1.27385683	10.85245143
